<mxfile host="Electron" modified="2024-12-19T19:11:44.392Z" agent="Mozilla/5.0 (Macintosh; Intel Mac OS X 10_15_7) AppleWebKit/537.36 (KHTML, like Gecko) draw.io/24.5.3 Chrome/124.0.6367.207 Electron/30.0.6 Safari/537.36" etag="b95LaqPJFhHuT_N6axB0" version="24.5.3" type="device">
  <diagram name="Page-1" id="NXtn5NWAt9A9GzLUvKJt">
    <mxGraphModel dx="1173" dy="924" grid="1" gridSize="10" guides="1" tooltips="1" connect="1" arrows="1" fold="1" page="1" pageScale="1" pageWidth="827" pageHeight="1169" math="0" shadow="0">
      <root>
        <mxCell id="0" />
        <mxCell id="1" parent="0" />
        <mxCell id="quluALVd1v3folgSFrMa-1" value="Продажи в сети отделений" style="rounded=0;whiteSpace=wrap;html=1;fillColor=#dae8fc;strokeColor=#6c8ebf;" vertex="1" parent="1">
          <mxGeometry x="210" y="210" width="120" height="60" as="geometry" />
        </mxCell>
        <mxCell id="quluALVd1v3folgSFrMa-2" value="Продажи через кол-центр" style="rounded=0;whiteSpace=wrap;html=1;fillColor=#dae8fc;strokeColor=#6c8ebf;" vertex="1" parent="1">
          <mxGeometry x="380" y="210" width="120" height="60" as="geometry" />
        </mxCell>
        <mxCell id="quluALVd1v3folgSFrMa-3" value="Digital-оповещения клиентов" style="rounded=0;whiteSpace=wrap;html=1;fillColor=#dae8fc;strokeColor=#6c8ebf;" vertex="1" parent="1">
          <mxGeometry x="550" y="210" width="120" height="60" as="geometry" />
        </mxCell>
        <mxCell id="quluALVd1v3folgSFrMa-4" value="Обслуживание депозитных процессов" style="rounded=0;whiteSpace=wrap;html=1;fillColor=#dae8fc;strokeColor=#6c8ebf;" vertex="1" parent="1">
          <mxGeometry x="730" y="210" width="120" height="60" as="geometry" />
        </mxCell>
        <mxCell id="quluALVd1v3folgSFrMa-5" value="Обслуживание кредитных процессов" style="rounded=0;whiteSpace=wrap;html=1;fillColor=#dae8fc;strokeColor=#6c8ebf;" vertex="1" parent="1">
          <mxGeometry x="910" y="210" width="120" height="60" as="geometry" />
        </mxCell>
        <mxCell id="quluALVd1v3folgSFrMa-6" value="Управление договорами" style="rounded=0;whiteSpace=wrap;html=1;fillColor=#dae8fc;strokeColor=#6c8ebf;" vertex="1" parent="1">
          <mxGeometry x="1100" y="210" width="120" height="60" as="geometry" />
        </mxCell>
        <mxCell id="quluALVd1v3folgSFrMa-7" value="Управление обслуживанием в сети отделений" style="rounded=0;whiteSpace=wrap;html=1;fillColor=#f8cecc;strokeColor=#b85450;" vertex="1" parent="1">
          <mxGeometry x="20" y="300" width="120" height="60" as="geometry" />
        </mxCell>
        <mxCell id="quluALVd1v3folgSFrMa-8" value="Кол-центр" style="rounded=0;whiteSpace=wrap;html=1;fillColor=#f8cecc;strokeColor=#b85450;" vertex="1" parent="1">
          <mxGeometry x="20" y="400" width="120" height="60" as="geometry" />
        </mxCell>
        <mxCell id="quluALVd1v3folgSFrMa-9" value="IT-отдел" style="rounded=0;whiteSpace=wrap;html=1;fillColor=#f8cecc;strokeColor=#b85450;" vertex="1" parent="1">
          <mxGeometry x="20" y="510" width="120" height="60" as="geometry" />
        </mxCell>
        <mxCell id="quluALVd1v3folgSFrMa-10" value="Управление обслуживанием депозитных продуктов" style="rounded=0;whiteSpace=wrap;html=1;fillColor=#f8cecc;strokeColor=#b85450;" vertex="1" parent="1">
          <mxGeometry x="20" y="630" width="120" height="60" as="geometry" />
        </mxCell>
        <mxCell id="quluALVd1v3folgSFrMa-11" value="Управление обслуживанием кредитных продуктов" style="rounded=0;whiteSpace=wrap;html=1;fillColor=#f8cecc;strokeColor=#b85450;" vertex="1" parent="1">
          <mxGeometry x="20" y="750" width="120" height="60" as="geometry" />
        </mxCell>
        <mxCell id="quluALVd1v3folgSFrMa-12" value="Команда цифровой трансформации розничного бизнеса" style="rounded=0;whiteSpace=wrap;html=1;fillColor=#f8cecc;strokeColor=#b85450;" vertex="1" parent="1">
          <mxGeometry x="20" y="870" width="120" height="60" as="geometry" />
        </mxCell>
        <mxCell id="quluALVd1v3folgSFrMa-13" value="АБС" style="rounded=0;whiteSpace=wrap;html=1;fillColor=#d5e8d4;strokeColor=#82b366;fillOpacity=50;" vertex="1" parent="1">
          <mxGeometry x="210" y="300" width="1010" height="60" as="geometry" />
        </mxCell>
        <mxCell id="quluALVd1v3folgSFrMa-14" value="&amp;nbsp;СМС-шлюз" style="rounded=0;whiteSpace=wrap;html=1;fillColor=#e1d5e7;strokeColor=#9673a6;" vertex="1" parent="1">
          <mxGeometry x="385" y="400" width="55" height="180" as="geometry" />
        </mxCell>
        <mxCell id="quluALVd1v3folgSFrMa-16" value="Система кол-центра" style="rounded=0;whiteSpace=wrap;html=1;fillColor=#e1d5e7;strokeColor=#9673a6;" vertex="1" parent="1">
          <mxGeometry x="440" y="400" width="60" height="60" as="geometry" />
        </mxCell>
        <mxCell id="quluALVd1v3folgSFrMa-17" value="АБС" style="rounded=0;whiteSpace=wrap;html=1;fillColor=#d5e8d4;strokeColor=#82b366;fillOpacity=50;" vertex="1" parent="1">
          <mxGeometry x="210" y="510" width="1010" height="300" as="geometry" />
        </mxCell>
        <mxCell id="quluALVd1v3folgSFrMa-18" value="Система кол-центра" style="rounded=0;whiteSpace=wrap;html=1;fillColor=#e1d5e7;strokeColor=#9673a6;" vertex="1" parent="1">
          <mxGeometry x="730" y="400" width="120" height="60" as="geometry" />
        </mxCell>
      </root>
    </mxGraphModel>
  </diagram>
</mxfile>
